<mxfile host="app.diagrams.net" agent="Mozilla/5.0 (Windows NT 10.0; Win64; x64) AppleWebKit/537.36 (KHTML, like Gecko) Chrome/133.0.0.0 Safari/537.36" version="26.0.16">
  <diagram name="Страница — 1" id="uza6zx2osNy5zMwyRtOy">
    <mxGraphModel dx="2074" dy="1098" grid="1" gridSize="10" guides="1" tooltips="1" connect="1" arrows="1" fold="1" page="1" pageScale="1" pageWidth="827" pageHeight="1169" math="0" shadow="0">
      <root>
        <mxCell id="0" />
        <mxCell id="1" parent="0" />
        <mxCell id="WZbuDvfm6mthvh1UUIn4-1" style="edgeStyle=orthogonalEdgeStyle;rounded=0;orthogonalLoop=1;jettySize=auto;html=1;entryX=0.5;entryY=1;entryDx=0;entryDy=0;endArrow=none;startFill=0;" edge="1" parent="1" source="WZbuDvfm6mthvh1UUIn4-4" target="WZbuDvfm6mthvh1UUIn4-9">
          <mxGeometry relative="1" as="geometry" />
        </mxCell>
        <mxCell id="WZbuDvfm6mthvh1UUIn4-2" style="edgeStyle=orthogonalEdgeStyle;rounded=0;orthogonalLoop=1;jettySize=auto;html=1;endArrow=none;startFill=0;" edge="1" parent="1" source="WZbuDvfm6mthvh1UUIn4-4" target="WZbuDvfm6mthvh1UUIn4-16">
          <mxGeometry relative="1" as="geometry" />
        </mxCell>
        <mxCell id="WZbuDvfm6mthvh1UUIn4-3" style="edgeStyle=orthogonalEdgeStyle;rounded=0;orthogonalLoop=1;jettySize=auto;html=1;entryX=0.5;entryY=0;entryDx=0;entryDy=0;endArrow=none;startFill=0;" edge="1" parent="1" source="WZbuDvfm6mthvh1UUIn4-4" target="WZbuDvfm6mthvh1UUIn4-29">
          <mxGeometry relative="1" as="geometry" />
        </mxCell>
        <mxCell id="WZbuDvfm6mthvh1UUIn4-4" value="Покупатель" style="shape=umlActor;verticalLabelPosition=bottom;verticalAlign=top;html=1;outlineConnect=0;" vertex="1" parent="1">
          <mxGeometry x="140" y="420" width="30" height="60" as="geometry" />
        </mxCell>
        <mxCell id="WZbuDvfm6mthvh1UUIn4-5" style="edgeStyle=orthogonalEdgeStyle;rounded=0;orthogonalLoop=1;jettySize=auto;html=1;entryX=0.5;entryY=1;entryDx=0;entryDy=0;dashed=1;" edge="1" parent="1" source="WZbuDvfm6mthvh1UUIn4-9" target="WZbuDvfm6mthvh1UUIn4-10">
          <mxGeometry relative="1" as="geometry" />
        </mxCell>
        <mxCell id="WZbuDvfm6mthvh1UUIn4-6" value="include" style="edgeLabel;html=1;align=center;verticalAlign=middle;resizable=0;points=[];" vertex="1" connectable="0" parent="WZbuDvfm6mthvh1UUIn4-5">
          <mxGeometry x="-0.0833" y="-1" relative="1" as="geometry">
            <mxPoint as="offset" />
          </mxGeometry>
        </mxCell>
        <mxCell id="WZbuDvfm6mthvh1UUIn4-7" style="rounded=0;orthogonalLoop=1;jettySize=auto;html=1;entryX=0.5;entryY=1;entryDx=0;entryDy=0;dashed=1;" edge="1" parent="1" source="WZbuDvfm6mthvh1UUIn4-9" target="WZbuDvfm6mthvh1UUIn4-11">
          <mxGeometry relative="1" as="geometry" />
        </mxCell>
        <mxCell id="WZbuDvfm6mthvh1UUIn4-8" value="include" style="edgeLabel;html=1;align=center;verticalAlign=middle;resizable=0;points=[];" vertex="1" connectable="0" parent="WZbuDvfm6mthvh1UUIn4-7">
          <mxGeometry x="-0.0165" relative="1" as="geometry">
            <mxPoint as="offset" />
          </mxGeometry>
        </mxCell>
        <mxCell id="WZbuDvfm6mthvh1UUIn4-9" value="Зарегистрироваться в системе" style="ellipse;whiteSpace=wrap;html=1;" vertex="1" parent="1">
          <mxGeometry x="95" y="320" width="120" height="60" as="geometry" />
        </mxCell>
        <mxCell id="WZbuDvfm6mthvh1UUIn4-10" value="Внести&amp;nbsp;&lt;div&gt;свои данные&lt;/div&gt;" style="ellipse;whiteSpace=wrap;html=1;" vertex="1" parent="1">
          <mxGeometry x="95" y="220" width="120" height="40" as="geometry" />
        </mxCell>
        <mxCell id="WZbuDvfm6mthvh1UUIn4-11" value="Подтвердить свои данные" style="ellipse;whiteSpace=wrap;html=1;" vertex="1" parent="1">
          <mxGeometry x="250" y="210" width="120" height="50" as="geometry" />
        </mxCell>
        <mxCell id="WZbuDvfm6mthvh1UUIn4-12" style="rounded=0;orthogonalLoop=1;jettySize=auto;html=1;dashed=1;" edge="1" parent="1" source="WZbuDvfm6mthvh1UUIn4-16" target="WZbuDvfm6mthvh1UUIn4-20">
          <mxGeometry relative="1" as="geometry" />
        </mxCell>
        <mxCell id="WZbuDvfm6mthvh1UUIn4-13" value="include" style="edgeLabel;html=1;align=center;verticalAlign=middle;resizable=0;points=[];" vertex="1" connectable="0" parent="WZbuDvfm6mthvh1UUIn4-12">
          <mxGeometry x="-0.1535" y="2" relative="1" as="geometry">
            <mxPoint as="offset" />
          </mxGeometry>
        </mxCell>
        <mxCell id="WZbuDvfm6mthvh1UUIn4-14" style="rounded=0;orthogonalLoop=1;jettySize=auto;html=1;dashed=1;" edge="1" parent="1" source="WZbuDvfm6mthvh1UUIn4-16" target="WZbuDvfm6mthvh1UUIn4-18">
          <mxGeometry relative="1" as="geometry" />
        </mxCell>
        <mxCell id="WZbuDvfm6mthvh1UUIn4-15" value="include" style="edgeLabel;html=1;align=center;verticalAlign=middle;resizable=0;points=[];" vertex="1" connectable="0" parent="WZbuDvfm6mthvh1UUIn4-14">
          <mxGeometry x="-0.0637" y="-4" relative="1" as="geometry">
            <mxPoint as="offset" />
          </mxGeometry>
        </mxCell>
        <mxCell id="WZbuDvfm6mthvh1UUIn4-16" value="Покупка товара" style="ellipse;whiteSpace=wrap;html=1;" vertex="1" parent="1">
          <mxGeometry x="230" y="430" width="110" height="40" as="geometry" />
        </mxCell>
        <mxCell id="WZbuDvfm6mthvh1UUIn4-17" style="edgeStyle=orthogonalEdgeStyle;rounded=0;orthogonalLoop=1;jettySize=auto;html=1;endArrow=none;startFill=0;" edge="1" parent="1" source="WZbuDvfm6mthvh1UUIn4-18" target="WZbuDvfm6mthvh1UUIn4-23">
          <mxGeometry relative="1" as="geometry" />
        </mxCell>
        <mxCell id="WZbuDvfm6mthvh1UUIn4-18" value="Выбор товара" style="ellipse;whiteSpace=wrap;html=1;" vertex="1" parent="1">
          <mxGeometry x="390" y="400" width="120" height="30" as="geometry" />
        </mxCell>
        <mxCell id="WZbuDvfm6mthvh1UUIn4-19" style="edgeStyle=orthogonalEdgeStyle;rounded=0;orthogonalLoop=1;jettySize=auto;html=1;endArrow=none;startFill=0;" edge="1" parent="1" source="WZbuDvfm6mthvh1UUIn4-20" target="WZbuDvfm6mthvh1UUIn4-23">
          <mxGeometry relative="1" as="geometry" />
        </mxCell>
        <mxCell id="WZbuDvfm6mthvh1UUIn4-20" value="Оплата товара" style="ellipse;whiteSpace=wrap;html=1;" vertex="1" parent="1">
          <mxGeometry x="390" y="470" width="120" height="40" as="geometry" />
        </mxCell>
        <mxCell id="WZbuDvfm6mthvh1UUIn4-21" style="rounded=0;orthogonalLoop=1;jettySize=auto;html=1;entryX=0.5;entryY=0;entryDx=0;entryDy=0;endArrow=none;startFill=0;" edge="1" parent="1" source="WZbuDvfm6mthvh1UUIn4-23" target="WZbuDvfm6mthvh1UUIn4-26">
          <mxGeometry relative="1" as="geometry" />
        </mxCell>
        <mxCell id="WZbuDvfm6mthvh1UUIn4-22" style="rounded=0;orthogonalLoop=1;jettySize=auto;html=1;endArrow=none;startFill=0;" edge="1" parent="1" source="WZbuDvfm6mthvh1UUIn4-23" target="WZbuDvfm6mthvh1UUIn4-28">
          <mxGeometry relative="1" as="geometry" />
        </mxCell>
        <mxCell id="WZbuDvfm6mthvh1UUIn4-23" value="Фармацевт" style="shape=umlActor;verticalLabelPosition=bottom;verticalAlign=top;html=1;outlineConnect=0;" vertex="1" parent="1">
          <mxGeometry x="680" y="420" width="30" height="60" as="geometry" />
        </mxCell>
        <mxCell id="WZbuDvfm6mthvh1UUIn4-24" style="edgeStyle=orthogonalEdgeStyle;rounded=0;orthogonalLoop=1;jettySize=auto;html=1;entryX=0.5;entryY=1;entryDx=0;entryDy=0;endArrow=none;startFill=0;" edge="1" parent="1" source="WZbuDvfm6mthvh1UUIn4-25" target="WZbuDvfm6mthvh1UUIn4-34">
          <mxGeometry relative="1" as="geometry" />
        </mxCell>
        <mxCell id="WZbuDvfm6mthvh1UUIn4-25" value="Курьер" style="shape=umlActor;verticalLabelPosition=bottom;verticalAlign=top;html=1;outlineConnect=0;" vertex="1" parent="1">
          <mxGeometry x="490" y="770" width="30" height="60" as="geometry" />
        </mxCell>
        <mxCell id="WZbuDvfm6mthvh1UUIn4-26" value="собрать заказ" style="ellipse;whiteSpace=wrap;html=1;" vertex="1" parent="1">
          <mxGeometry x="700" y="540" width="105" height="45" as="geometry" />
        </mxCell>
        <mxCell id="WZbuDvfm6mthvh1UUIn4-27" style="edgeStyle=orthogonalEdgeStyle;rounded=0;orthogonalLoop=1;jettySize=auto;html=1;endArrow=none;startFill=0;" edge="1" parent="1" source="WZbuDvfm6mthvh1UUIn4-28" target="WZbuDvfm6mthvh1UUIn4-25">
          <mxGeometry relative="1" as="geometry">
            <Array as="points">
              <mxPoint x="613" y="800" />
            </Array>
          </mxGeometry>
        </mxCell>
        <mxCell id="WZbuDvfm6mthvh1UUIn4-28" value="отдать заказ курьеру" style="ellipse;whiteSpace=wrap;html=1;" vertex="1" parent="1">
          <mxGeometry x="560" y="540" width="105" height="45" as="geometry" />
        </mxCell>
        <mxCell id="WZbuDvfm6mthvh1UUIn4-29" value="Подтвердить получение заказа" style="ellipse;whiteSpace=wrap;html=1;" vertex="1" parent="1">
          <mxGeometry x="97.5" y="545" width="115" height="45" as="geometry" />
        </mxCell>
        <mxCell id="WZbuDvfm6mthvh1UUIn4-30" style="rounded=0;orthogonalLoop=1;jettySize=auto;html=1;endArrow=block;endFill=0;" edge="1" parent="1" source="WZbuDvfm6mthvh1UUIn4-31" target="WZbuDvfm6mthvh1UUIn4-29">
          <mxGeometry relative="1" as="geometry">
            <Array as="points">
              <mxPoint x="120" y="600" />
            </Array>
          </mxGeometry>
        </mxCell>
        <mxCell id="WZbuDvfm6mthvh1UUIn4-31" value="Поставить роспись" style="ellipse;whiteSpace=wrap;html=1;" vertex="1" parent="1">
          <mxGeometry x="30" y="615" width="120" height="35" as="geometry" />
        </mxCell>
        <mxCell id="WZbuDvfm6mthvh1UUIn4-32" style="rounded=0;orthogonalLoop=1;jettySize=auto;html=1;endArrow=block;endFill=0;" edge="1" parent="1" source="WZbuDvfm6mthvh1UUIn4-33" target="WZbuDvfm6mthvh1UUIn4-29">
          <mxGeometry relative="1" as="geometry" />
        </mxCell>
        <mxCell id="WZbuDvfm6mthvh1UUIn4-33" value="Указать получение заказа в приложении" style="ellipse;whiteSpace=wrap;html=1;" vertex="1" parent="1">
          <mxGeometry x="180" y="610" width="120" height="70" as="geometry" />
        </mxCell>
        <mxCell id="WZbuDvfm6mthvh1UUIn4-34" value="Доставить заказ" style="ellipse;whiteSpace=wrap;html=1;" vertex="1" parent="1">
          <mxGeometry x="455" y="670" width="100" height="60" as="geometry" />
        </mxCell>
        <mxCell id="WZbuDvfm6mthvh1UUIn4-35" style="rounded=0;orthogonalLoop=1;jettySize=auto;html=1;endArrow=block;endFill=0;" edge="1" parent="1" source="WZbuDvfm6mthvh1UUIn4-36" target="WZbuDvfm6mthvh1UUIn4-34">
          <mxGeometry relative="1" as="geometry" />
        </mxCell>
        <mxCell id="WZbuDvfm6mthvh1UUIn4-36" value="Доставить заказчику" style="ellipse;whiteSpace=wrap;html=1;" vertex="1" parent="1">
          <mxGeometry x="330" y="625" width="100" height="60" as="geometry" />
        </mxCell>
        <mxCell id="WZbuDvfm6mthvh1UUIn4-37" style="edgeStyle=orthogonalEdgeStyle;rounded=0;orthogonalLoop=1;jettySize=auto;html=1;entryX=0.5;entryY=0;entryDx=0;entryDy=0;endArrow=block;endFill=0;" edge="1" parent="1" source="WZbuDvfm6mthvh1UUIn4-38" target="WZbuDvfm6mthvh1UUIn4-34">
          <mxGeometry relative="1" as="geometry" />
        </mxCell>
        <mxCell id="WZbuDvfm6mthvh1UUIn4-38" value="Доставить в постомат" style="ellipse;whiteSpace=wrap;html=1;" vertex="1" parent="1">
          <mxGeometry x="455" y="565" width="100" height="60" as="geometry" />
        </mxCell>
      </root>
    </mxGraphModel>
  </diagram>
</mxfile>
